An unemployed defense worker frustrated with the various flaws he sees in society, begins to psychotically and violently lash out against them.

CAST

Michael Douglas ... William 'D-Fens' Foster
Robert Duvall ... Detective Prendergast
Barbara Hershey ... Elizabeth 'Beth' Travino
Tuesday Weld ... Amanda Prendergast
Rachel Ticotin ... Detective Sandra Torrez
Frederic Forrest ... Nick, The Nazi Surplus Store Owner
Lois Smith ... Mrs. Foster / William's Mother
Joey Hope Singer ... Adele Foster-Travino
Ebbe Roe Smith ... Guy on Freeway
Michael Paul Chan ... Mr. Lee
Raymond J. Barry ... Captain Yardley
D.W. Moffett ... Detective Lydecker
Steve Park ... Detective Brian
Kimberly Scott ... Detective Jones
james Keane ... Detective Keene
 
http://leetleech.org/images/36821806072444052941.png 
http://leetleech.org/images/81045116103443251381.png 
http://leetleech.org/images/87737912278681601236.png 
http://leetleech.org/images/90315514161228347847.png

 
http://www.imdb.com/title/tt0106856/ 

 
http://www.videodetective.com/movie_trailer/FALLING_DOWN/trailer/P00004386.htm

General
Complete name : Falling Down 1993 DVDRip Xvid BigPerm LKRG\FD_LKRG.avi
Format : AVI
Format/Info : Audio Video Interleave
Format profile : OpenDML
File size : 1.10 GiB
Duration : 1h 52mn
Overall bit rate : 1 394 Kbps

Video
ID : 0
Format : MPEG-4 Visual
Format profile : Advanced Simple@L5
Format settings, BVOP : Yes
Format settings, QPel : No
Format settings, GMC : No warppoints
Format settings, Matrix : Default (H.263)
Codec ID : XVID
Codec ID/Hint : XviD
Duration : 1h 52mn
Bit rate : 48.2 Kbps
Width : 704 pixels
Height : 396 pixels
Display aspect ratio : 16:9
Frame rate : 23.976 fps
Color space : YUV
Chroma subsampling : 4:2:0
Bit depth : 8 bits
Scan type : Progressive
Compression mode : Lossy
Bits/(Pixel*Frame) : 0.007
Stream size : 38.8 MiB (3%)
Writing library : XviD 1.2.1 (UTC 2008-12-04)

Audio
ID : 1
Format : AC-3
Format/Info : Audio Coding 3
Codec ID : 2000
Duration : 1h 52mn
Bit rate mode : Constant
Bit rate : 192 Kbps
Channel(s) : 2 channels
Sampling rate : 48.0 KHz
Bit depth : 16 bits
Compression mode : Lossy
Stream size : 155 MiB (14%)
Alignment : Aligned on interleaves
Language : English


Thanks to BigPerm